<?xml version="1.0" encoding="utf-8"?>
<!-- Generator: Adobe Illustrator 27.3.1, SVG Export Plug-In . SVG Version: 6.00 Build 0)  -->
<svg version="1.1" id="Layer_1" xmlns="http://www.w3.org/2000/svg" xmlns:xlink="http://www.w3.org/1999/xlink" x="0px" y="0px"
	 viewBox="0 0 500 500" style="enable-background:new 0 0 500 500;" xml:space="preserve">
<style type="text/css">
	.st0{fill:#FFFFFF;}
</style>
<path class="st0" d="M464.06,120.07L244.69,0L31.04,129.96l1.19,51.8L250.41,57.16v19.75L32.71,203.23l0.94,39.46l99.82-55.85v19.34
	l-99.35,57.79l0.91,40.97l95.43-57.79l1.1,21.63l-96.12,54.18l1,42.63l97-56.22v11.55l9.32,4.08l-100.08,58.2l35.41,19.4h0.03
	l99.23-58.01l17.89,11.74l-97.06,57.26l34.19,18.74l97.5-56.6l17.89,11.9l-95.68,55.47l35.94,19.65L402.4,339.56l16.76,10.08
	L207.09,473.16L256.06,500l213.62-129.93L464.06,120.07z M367.02,317.49l-114.39,67.46V250l-114.55-65.8l114.58-66.68l115.52,66.68
	L367.02,317.49z"/>
</svg>
