<?xml version="1.0" encoding="utf-8"?>
<!-- Generator: Adobe Illustrator 27.3.1, SVG Export Plug-In . SVG Version: 6.00 Build 0)  -->
<svg version="1.1" id="Layer_1" xmlns="http://www.w3.org/2000/svg" xmlns:xlink="http://www.w3.org/1999/xlink" x="0px" y="0px"
	 viewBox="0 0 500 166.39" style="enable-background:new 0 0 500 166.39;" xml:space="preserve">
<style type="text/css">
	.st0{fill:#FA8241;}
	.st1{fill:none;}
</style>
<path class="st0" d="M142.41,41.21L72.53,2.96L4.47,44.36l0.38,16.5l69.5-39.69v6.29L5,67.7L5.3,80.27l31.8-17.79v6.16L5.45,87.05
	l0.29,13.05l30.4-18.41l0.35,6.89L5.87,105.84l0.32,13.58l30.9-17.91v3.68l2.97,1.3L8.18,125.03l11.28,6.18h0.01l31.61-18.48
	l5.7,3.74l-30.92,18.24l10.89,5.97l31.06-18.03l5.7,3.79l-30.48,17.67l11.45,6.26l68.29-39.24l5.34,3.21l-67.56,39.35l15.6,8.55
	l68.05-41.39L142.41,41.21z M111.5,104.1l-36.44,21.49V82.6L38.57,61.64L75.07,40.4l36.8,21.24L111.5,104.1z"/>
<polyline class="st1" points="148.07,131.94 178.69,114.68 178.34,107.79 147.94,126.2 "/>
<line class="st1" x1="185.98" y1="48.71" x2="185.97" y2="48.71"/>
<line class="st1" x1="148.39" y1="145.52" x2="148.38" y2="145.52"/>
<line class="st1" x1="147.65" y1="113.14" x2="147.64" y2="113.14"/>
<line class="st1" x1="147.5" y1="106.37" x2="147.48" y2="106.37"/>
<g>
	<path d="M148.77,82.46l5.52-2.56c0.52,1.9,1.48,3.34,2.87,4.34c1.39,1,3.17,1.5,5.34,1.5c2.05,0,3.68-0.57,4.89-1.71
		c1.21-1.14,1.81-2.67,1.81-4.59c0-2.5-2.07-4.72-6.21-6.68c-0.58-0.29-1.03-0.5-1.34-0.64c-4.69-2.28-7.81-4.35-9.36-6.2
		c-1.56-1.85-2.34-4.11-2.34-6.78c0-3.46,1.18-6.27,3.53-8.42s5.43-3.22,9.25-3.22c3.14,0,5.76,0.61,7.87,1.81
		c2.11,1.21,3.57,2.95,4.38,5.21l-5.4,2.79c-0.85-1.34-1.79-2.31-2.8-2.93c-1.02-0.62-2.18-0.93-3.5-0.93
		c-1.86,0-3.33,0.48-4.43,1.45c-1.09,0.97-1.64,2.26-1.64,3.89c0,2.56,2.4,4.94,7.2,7.14c0.37,0.17,0.66,0.31,0.87,0.41
		c4.2,1.94,7.08,3.83,8.65,5.68c1.57,1.85,2.35,4.16,2.35,6.93c0,4.03-1.27,7.23-3.8,9.6c-2.54,2.37-5.96,3.56-10.28,3.56
		c-3.62,0-6.59-0.83-8.9-2.5C151,87.94,149.49,85.56,148.77,82.46z"/>
	<path d="M183.96,90.97V48.45h6.91v42.51H183.96z"/>
	<path d="M224.36,69.19h16.84c0,0.29,0.01,0.7,0.03,1.22c0.06,1.37,0.09,2.3,0.09,2.79c0,5.98-1.71,10.63-5.14,13.94
		c-3.43,3.31-8.26,4.97-14.49,4.97c-3.48,0-6.59-0.51-9.32-1.54c-2.73-1.03-5.12-2.57-7.17-4.65c-2.01-2.05-3.56-4.46-4.63-7.23
		c-1.07-2.77-1.61-5.73-1.61-8.89c0-3.21,0.55-6.18,1.64-8.89c1.09-2.71,2.71-5.1,4.86-7.17c2.07-2.03,4.5-3.58,7.29-4.65
		c2.79-1.06,5.77-1.6,8.94-1.6c3.35,0,6.34,0.61,8.99,1.83c2.64,1.22,5,3.09,7.07,5.6l-5.05,3.8c-1.43-1.67-3.05-2.9-4.85-3.72
		c-1.8-0.81-3.81-1.22-6.04-1.22c-4.61,0-8.37,1.48-11.28,4.43c-2.91,2.95-4.37,6.79-4.37,11.51c0,4.8,1.46,8.7,4.37,11.69
		c2.91,2.99,6.69,4.49,11.34,4.49c3.95,0,7.06-0.92,9.32-2.76c2.27-1.84,3.4-4.35,3.4-7.52v-0.61h-10.22V69.19z"/>
	<path d="M248.57,90.97v-44.2l27.01,25.99c0.74,0.74,1.48,1.52,2.24,2.35c0.76,0.83,1.55,1.77,2.38,2.82V48.45h6.39v44.17
		l-27.56-26.45c-0.74-0.72-1.45-1.47-2.13-2.27c-0.69-0.79-1.34-1.63-1.96-2.5v29.56H248.57z"/>
	<path d="M324.42,90.97l-4.82-10.95h-16.84l-4.94,10.95h-7.26l20.59-44.2l20.56,44.2H324.42z M305.31,74.27h11.85l-4.36-9.7
		c-0.25-0.62-0.51-1.33-0.78-2.13c-0.27-0.8-0.54-1.7-0.81-2.69c-0.23,0.93-0.48,1.8-0.74,2.6c-0.26,0.8-0.53,1.54-0.8,2.22
		L305.31,74.27z"/>
	<path d="M346.2,54.32v36.65h-6.91V54.32h-11.3v-5.87h29.44v5.87H346.2z"/>
	<path d="M362.55,48.45h6.82v25.81c0,3.83,0.89,6.71,2.66,8.64c1.77,1.93,4.42,2.89,7.94,2.89c3.5,0,6.14-0.96,7.91-2.89
		c1.77-1.93,2.66-4.81,2.66-8.64V48.45h6.91v26.45c0,5.75-1.45,10.05-4.36,12.91c-2.9,2.86-7.28,4.28-13.12,4.28
		c-5.85,0-10.21-1.42-13.1-4.27c-2.88-2.85-4.33-7.15-4.33-12.92V48.45z"/>
	<path d="M413.45,71.94v19.02h-6.48V48.45h9.64c2.83,0,5.02,0.18,6.58,0.55c1.56,0.37,2.89,0.98,3.99,1.83
		c1.32,1.03,2.33,2.35,3.05,3.98c0.72,1.63,1.07,3.41,1.07,5.34c0,3.41-0.82,6.07-2.47,8c-1.65,1.93-4.08,3.08-7.29,3.47
		l14.64,19.34h-7.81l-14.14-19.02H413.45z M413.89,66.57h1.25c3.66,0,6.09-0.43,7.29-1.28c1.2-0.85,1.8-2.36,1.8-4.53
		c0-2.34-0.64-3.99-1.93-4.95c-1.29-0.96-3.67-1.44-7.16-1.44h-1.25V66.57z"/>
	<path d="M440.28,90.97V48.45h23.72v5.87h-16.81v10.66h16.81v6.07h-16.81v13.73h16.81v6.19H440.28z"/>
</g>
<g>
	<path class="st0" d="M151.39,119.87V96.98h3.72v8.44h11.26v-8.44h3.72v22.89h-3.72v-11.12h-11.26v11.12H151.39z"/>
	<path class="st0" d="M190.47,119.87l-2.6-5.89h-9.07l-2.66,5.89h-3.91l11.09-23.8l11.07,23.8H190.47z M180.18,110.88h6.38
		l-2.35-5.22c-0.14-0.33-0.28-0.72-0.42-1.15c-0.15-0.43-0.29-0.92-0.44-1.45c-0.12,0.5-0.26,0.97-0.4,1.4
		c-0.14,0.43-0.28,0.83-0.43,1.2L180.18,110.88z"/>
	<path class="st0" d="M200.03,109.63v10.24h-3.49V96.98h5.19c1.52,0,2.7,0.1,3.54,0.3c0.84,0.2,1.56,0.53,2.15,0.99
		c0.71,0.55,1.26,1.27,1.64,2.14c0.39,0.88,0.58,1.83,0.58,2.88c0,1.83-0.44,3.27-1.33,4.31c-0.89,1.04-2.19,1.66-3.92,1.87
		l7.88,10.41h-4.21l-7.61-10.24H200.03z M200.27,106.73h0.67c1.97,0,3.28-0.23,3.92-0.69c0.65-0.46,0.97-1.27,0.97-2.44
		c0-1.26-0.35-2.15-1.04-2.67c-0.69-0.52-1.98-0.77-3.85-0.77h-0.67V106.73z"/>
	<path class="st0" d="M214.48,119.87V96.98h5.02c3.26,0,5.56,0.16,6.89,0.49c1.33,0.33,2.49,0.88,3.49,1.65
		c1.32,1.01,2.33,2.31,3.01,3.89c0.68,1.58,1.02,3.39,1.02,5.43c0,2.03-0.34,3.83-1.02,5.4c-0.68,1.57-1.69,2.86-3.01,3.88
		c-1,0.77-2.14,1.32-3.42,1.65c-1.28,0.33-3.27,0.49-5.97,0.49h-1H214.48z M218.2,116.51h3.13c1.72,0,3.01-0.12,3.87-0.34
		c0.86-0.23,1.61-0.61,2.24-1.16c0.87-0.74,1.51-1.66,1.95-2.76c0.43-1.1,0.65-2.38,0.65-3.84s-0.22-2.74-0.65-3.84
		c-0.43-1.1-1.08-2.02-1.95-2.76c-0.65-0.54-1.42-0.93-2.32-1.16c-0.9-0.23-2.31-0.34-4.23-0.34h-1.34h-1.34V116.51z"/>
	<path class="st0" d="M234.9,96.98h3.67l4.33,11.55c0.28,0.76,0.52,1.43,0.71,2c0.19,0.57,0.36,1.11,0.51,1.61
		c0.37-1.21,0.75-2.39,1.14-3.55c0.05-0.15,0.09-0.25,0.11-0.3l4.6-12.23l4.85,12.46c0.23,0.6,0.45,1.21,0.65,1.81
		c0.2,0.6,0.39,1.21,0.57,1.83c0.1-0.47,0.25-0.99,0.42-1.55c0.18-0.56,0.41-1.23,0.69-2l4.3-11.65h3.71l-8.87,23.78l-5.22-13.06
		c-0.23-0.58-0.44-1.14-0.62-1.68c-0.19-0.54-0.35-1.04-0.5-1.52c-0.18,0.62-0.35,1.19-0.53,1.73c-0.18,0.54-0.36,1.05-0.55,1.54
		l-5.13,12.99L234.9,96.98z"/>
	<path class="st0" d="M282.25,119.87l-2.6-5.89h-9.07l-2.66,5.89h-3.91l11.09-23.8l11.07,23.8H282.25z M271.96,110.88h6.38
		l-2.35-5.22c-0.14-0.33-0.28-0.72-0.42-1.15c-0.15-0.43-0.29-0.92-0.44-1.45c-0.13,0.5-0.26,0.97-0.4,1.4s-0.28,0.83-0.43,1.2
		L271.96,110.88z"/>
	<path class="st0" d="M291.82,109.63v10.24h-3.49V96.98h5.19c1.52,0,2.7,0.1,3.54,0.3s1.56,0.53,2.15,0.99
		c0.71,0.55,1.26,1.27,1.64,2.14c0.39,0.88,0.58,1.83,0.58,2.88c0,1.83-0.44,3.27-1.33,4.31c-0.89,1.04-2.19,1.66-3.92,1.87
		l7.88,10.41h-4.21l-7.61-10.24H291.82z M292.05,106.73h0.67c1.97,0,3.28-0.23,3.92-0.69c0.65-0.46,0.97-1.27,0.97-2.44
		c0-1.26-0.35-2.15-1.04-2.67c-0.69-0.52-1.98-0.77-3.85-0.77h-0.67V106.73z"/>
	<path class="st0" d="M306.26,119.87V96.98h12.77v3.16h-9.05v5.74h9.05v3.27h-9.05v7.4h9.05v3.33H306.26z"/>
</g>
</svg>
